<svg width="24" height="24" viewBox="0 0 24 24" fill="none" xmlns="http://www.w3.org/2000/svg">
<path d="M17.7928 7.21215C17.3484 5.30143 16.2175 3.62059 14.615 2.48913C13.0124 1.35767 11.05 0.854462 9.10075 1.07516C7.15149 1.29586 5.35127 2.22508 4.04227 3.68619C2.73327 5.1473 2.00676 7.03844 2.00082 9.00015C1.99995 10.2785 2.30876 11.5381 2.90082 12.6711C1.82194 13.2493 0.967215 14.1714 0.472434 15.2909C-0.0223463 16.4105 -0.1288 17.6633 0.169987 18.8503C0.468774 20.0373 1.15566 21.0904 2.12152 21.8422C3.08738 22.5941 4.2768 23.0017 5.50082 23.0001H16.0008C17.9599 22.9911 19.8476 22.2634 21.3058 20.9552C22.7641 19.6469 23.6917 17.8491 23.9126 15.9025C24.1336 13.9559 23.6326 11.9958 22.5046 10.3941C21.3766 8.79227 19.7 7.66008 17.7928 7.21215ZM16.0008 21.0001H5.50082C4.64924 21.0027 3.8261 20.6939 3.18633 20.1318C2.54657 19.5698 2.1343 18.7933 2.02713 17.9485C1.91996 17.1037 2.12528 16.2488 2.60445 15.5449C3.08362 14.8409 3.80358 14.3363 4.62882 14.1261C4.78753 14.0853 4.93377 14.0061 5.05466 13.8954C5.17556 13.7848 5.26741 13.6461 5.32213 13.4916C5.37685 13.3371 5.39276 13.1716 5.36847 13.0095C5.34418 12.8474 5.28042 12.6938 5.18282 12.5621C4.41397 11.5339 3.99923 10.2841 4.00082 9.00015C4.01222 7.48613 4.5956 6.0324 5.63396 4.9305C6.67231 3.8286 8.08886 3.15999 9.59953 3.05878C11.1102 2.95756 12.6033 3.43121 13.7794 4.38474C14.9554 5.33828 15.7275 6.70118 15.9408 8.20015C15.9696 8.4178 16.0692 8.61994 16.2243 8.77536C16.3793 8.93079 16.5812 9.03086 16.7988 9.06015C18.2976 9.27338 19.6604 10.0453 20.614 11.2212C21.5675 12.397 22.0413 13.8899 21.9404 15.4004C21.8394 16.911 21.1712 18.3275 20.0696 19.366C18.9681 20.4045 17.5147 20.9883 16.0008 21.0001Z" fill="white"/>
</svg>
